# AST/ASF file generated using VICON BodyLanguage
# -----------------------------------------------
:version 1.10
:name VICON
:units
  mass 1.0
  length 0.45
  angle deg
:documentation
   .ast/.asf automatically generated from VICON data using
   VICON BodyBuilder and BodyLanguage model FoxedUp or BRILLIANT.MOD
:root
   order TX TY TZ RX RY RZ
   axis XYZ
   position 0 0 0  
   orientation 0 0 0 
:bonedata
  begin
     id 1 
     name lhipjoint
     direction 0.440178 -0.822639 0.359871 
     length 2.53113 
     axis 0 0 0  XYZ
  end
  begin
     id 2 
     name lfemur
     direction 0.34202 -0.939693 0  
     length 7.88132  
     axis 0 0 20  XYZ
    dof rx ry rz
    limits (-160.0 20.0)
           (-70.0 70.0)
           (-60.0 70.0)
  end
  begin
     id 3 
     name ltibia
     direction 0.34202 -0.939693 0   
     length 8.43783   
     axis 0 0 20   XYZ
    dof rx
    limits (-10.0 170.0)
  end
  begin
     id 4 
     name lfoot
     direction 0.0886351 -0.243523 0.965837   
     length 2.63414   
     axis -90 7.62852e-016 20   XYZ
    dof rx rz
    limits (-45.0 90.0)
           (-70.0 20.0)
  end
  begin
     id 5 
     name ltoes
     direction 1.53703e-011 -4.21717e-011 1   
     length 1.31427   
     axis -90 7.62852e-016 20   XYZ
    dof rx
    limits (-90.0 20.0)
  end
  begin
     id 6 
     name rhipjoint
     direction -0.399779 -0.839773 0.367367   
     length 2.47948  
     axis 0 0 0  XYZ 
  end
  begin
     id 7 
     name rfemur
     direction -0.34202 -0.939693 0   
     length 7.74806   
     axis 0 0 -20   XYZ
    dof rx ry rz
    limits (-160.0 20.0)
           (-70.0 70.0)
           (-70.0 60.0)
  end
  begin
     id 8 
     name rtibia
     direction -0.34202 -0.939693 0   
     length 8.74432   
     axis 0 0 -20   XYZ
    dof rx
    limits (-10.0 170.0)
 end
 begin
     id 9 
     name rfoot
     direction -0.108514 -0.298139 0.948334   
     length 2.66102  
     axis -90 -7.62852e-016 -20   XYZ
    dof rx rz
    limits (-45.0 90.0)
           (-20.0 70.0)
  end
  begin
     id 10 
     name rtoes
     direction -1.53392e-011 -4.22077e-011 1   
     length 1.31983   
     axis -90 -7.62852e-016 -20   XYZ
    dof rx
    limits (-90.0 20.0)
  end
  begin
     id 11 
     name lowerback
     direction 0.0113257 0.999866 0.0118602   
     length 2.58694   
     axis 0 0 0   XYZ
    dof rx ry rz
    limits (-20.0 45.0)
           (-30.0 30.0)
           (-30.0 30.0)
  end
  begin
     id 12 
     name upperback
     direction -0.0164747 0.995193 -0.0965375   
     length 2.52368   
     axis 0 0 0   XYZ
    dof rx ry rz
    limits (-20.0 45.0)
           (-30.0 30.0)
           (-30.0 30.0)
  end
  begin
     id 13 
     name thorax
     direction -0.0194301 0.99433 -0.104552   
     length 2.56099   
     axis 0 0 0   XYZ
    dof rx ry rz
    limits (-20.0 45.0)
           (-30.0 30.0)
           (-30.0 30.0)
  end
  begin
     id 14 
     name lowerneck
     direction 0.0148543 0.995587 -0.092657   
     length 1.71582   
     axis 0 0 0   XYZ
    dof rx ry rz
    limits (-20.0 45.0)
           (-30.0 30.0)
           (-30.0 30.0)
  end
  begin
     id 15 
     name upperneck
     direction -0.0135467 0.993656 -0.111639   
     length 1.68937   
     axis 0 0 0   XYZ
    dof rx ry rz
    limits (-20.0 45.0)
           (-30.0 30.0)
           (-30.0 30.0)
  end
  begin
     id 16
     name head
     direction -0.00615349 0.999547 -0.029448  
     length 1.7462  
     axis 0 0 0   XYZ
    dof rx ry rz
    limits (-20.0 45.0)
           (-30.0 30.0)
           (-30.0 30.0)
  end
  begin
     id 17 
     name lclavicle
     direction 0.988267 0.149885 0.0293713  
     length 4.47222  
     axis 0 0 0   XYZ
    dof ry rz
    limits (-20.0 10.0)
           (0.0 20.0)
  end
  begin
     id 18 
     name lhumerus
     direction 1 -4.48986e-011 -1.14833e-027   
     length 5.37148   
     axis 180 -30 -90   XYZ
    dof rx ry rz
    limits (-60.0 90.0)
           (-90.0 90.0)
           (-90.0 90.0)
  end
  begin
     id 19
     name lradius
     direction 0.999998 0.00170963 -0.000987055   
     length 3.94212   
     axis 180 -30 -90   XYZ
    dof rx
    limits (-10.0 170.0)
  end
  begin
     id 20
     name lwrist
     direction 0.999998 7.53149e-005 -0.00194706   
     length 1.97106   
     axis 4.65056e-015 90 90   XYZ
    dof ry
    limits (-180.0 0.0)
 end
  begin
     id 21 
     name lhand
     direction 1 -4.48973e-011 -1.31746e-026   
     length 1.17917   
     axis 8.4065e-015 90 90   XYZ
    dof rx rz
    limits (-90.0 90.0)
           (-45.0 45.0)
  end
  begin
     id 22 
     name lfingers
     direction 1 -4.49107e-011 -2.63492e-026   
     length 0.950679   
     axis 1.6813e-014 90 90   XYZ
    dof rx
    limits (0.0 90.0)
  end
  begin
     id 23
     name lthumb
     direction 0.707107 -6.35048e-011 0.707107   
     length 1.36499   
     axis -90 45 2.85299e-015   XYZ
    dof rx rz
    limits (-45.0 45.0)
           (-45.0 45.0)
  end
  begin
     id 24 
     name rclavicle
     direction -0.996699 0.0642895 -0.0495725   
     length 4.62611  
     axis 0 0 0   XYZ 
    dof ry rz
    limits (-10.0 20.0)
           (-20.0 0.0)
  end
  begin
     id 25 
     name rhumerus
     direction -1 -4.48919e-011 -2.41059e-027  
     length 5.4981   
     axis 180 30 90   XYZ
    dof rx ry rz
    limits (-90.0 60.0)
           (-90.0 90.0)
           (-90.0 90.0)
  end
  begin
     id 26 
     name rradius
     direction -0.999999 0.00118101 -0.000681858   
     length 3.48381   
     axis 180 30 90   XYZ
    dof rx
    limits (-10.0 170.0)
  end
  begin
     id 27 
     name rwrist
     direction -0.999999 0.000321823 -0.00132288   
     length 1.7419   
     axis 4.65056e-015 -90 -90   XYZ
    dof ry
    limits (-180.0 0.0)
  end
  begin
     id 28
     name rhand
     direction -1 -4.49022e-011 -1.31746e-026   
     length 1.34932   
     axis 8.4065e-015 -90 -90   XYZ
    dof rx rz
    limits (-90.0 90.0)
           (-45.0 45.0)
  end
  begin
     id 29
     name rfingers
     direction -1 -4.49178e-011 -2.63492e-026   
     length 1.08785   
     axis 1.6813e-014 -90 -90   XYZ
    dof rx
    limits (0.0 90.0)
  end
  begin
     id 30
     name rthumb
     direction -0.707107 -6.34713e-011 0.707107   
     length 1.56195   
     axis -90 -45 -2.85299e-015   XYZ
    dof rx rz
    limits (-45.0 45.0)
           (-45.0 45.0)
  end
:hierarchy
  begin
    root lhipjoint rhipjoint lowerback
    lhipjoint lfemur
    lfemur ltibia
    ltibia lfoot
    lfoot ltoes
    rhipjoint rfemur
    rfemur rtibia
    rtibia rfoot
    rfoot rtoes
    lowerback upperback
    upperback thorax
    thorax lowerneck lclavicle rclavicle
    lowerneck upperneck
    upperneck head
    lclavicle lhumerus
    lhumerus lradius
    lradius lwrist
    lwrist lhand lthumb
    lhand lfingers
    rclavicle rhumerus
    rhumerus rradius
    rradius rwrist
    rwrist rhand rthumb
    rhand rfingers
  end

#!OML:ASF X:\für Bonn\!DataBase\2005_08_10_Bjorn_Final\c3d\bjorn.ASF
:FULLY-SPECIFIED
:DEGREES
1
root 5.39117 15.7147 12.8935 9.19612 -4.7055 1.61843
lowerback 15.5813 0.69703 2.15164
upperback 11.4361 1.11145 0.431041
thorax 3.47194 0.655097 -0.890662
lowerneck -16.534 -0.729689 1.56749
upperneck -5.81552 -1.2626 -2.26867
head 0.899601 -0.724366 -1.05967
rclavicle 7.55382e-015 9.54166e-015
rhumerus -32.9882 -40.0574 -73.5068
rradius 60.7095
rwrist -203.681
rhand -1.07185e-012 1.54257e-012
rfingers 7.12502
rthumb 25.5904 -28.3008
lclavicle 7.55382e-015 9.54166e-015
lhumerus -36.2168 7.6722 86.7717
lradius 51.4095
lwrist 18.4754
lhand 5.40694e-013 2.24229e-013
lfingers 7.12502
lthumb 25.5904 28.3008
rfemur -48.9484 -2.0256 15.2769
rtibia 89.2535
rfoot -31.8118 20.5536
rtoes -10.6983
lfemur -49.5464 5.13227 -20.3873
ltibia 89.6244
lfoot -29.8937 3.40736
ltoes -34.9886
2
root 5.38478 15.8986 13.0716 9.44402 -4.75291 1.75431
lowerback 14.6129 0.766776 1.99761
upperback 11.1649 1.17025 0.389918
thorax 3.68263 0.677884 -0.841388
lowerneck -17.357 -0.752586 1.52419
upperneck -4.71261 -1.27436 -2.25946
head 1.40793 -0.734803 -1.07094
rclavicle -1.78906e-014 1.70955e-014
rhumerus -34.0784 -39.8004 -72.4215
rradius 64.0927
rwrist -206.06
rhand 6.71097e-013 3.84847e-013
rfingers 7.12502
rthumb 25.5904 -28.3008
lclavicle -1.78906e-014 1.70955e-014
lhumerus -37.769 7.40507 85.973
lradius 55.6826
lwrist 19.2052
lhand -9.70069e-014 3.06924e-013
lfingers 7.12502
lthumb 25.5904 28.3008
rfemur -47.6002 -2.0608 15.0579
rtibia 87.4603
rfoot -31.189 20.7604
rtoes -10.7587
lfemur -48.0736 5.25327 -20.4405
ltibia 87.6677
lfoot -29.2599 2.64311
ltoes -34.6687
3
root 5.37645 16.0927 13.2547 9.80012 -4.73087 1.73885
lowerback 13.4724 0.8141 1.97863
upperback 10.8335 1.21217 0.414654
thorax 3.92635 0.69751 -0.79344
lowerneck -17.9438 -0.778863 1.45292
upperneck -3.65136 -1.28244 -2.26386
head 1.87081 -0.742024 -1.07924
rclavicle 4.77083e-015 -6.75868e-015
rhumerus -35.2816 -39.4986 -71.1945
rradius 67.7757
rwrist -207.991
rhand -2.3218e-013 1.06231e-012
rfingers 7.12502
rthumb 25.5904 -28.3008
lclavicle 4.77083e-015 -6.75868e-015
lhumerus -39.4165 7.02493 85.1776
lradius 60.2034
lwrist 19.5298
lhand 3.60993e-013 1.28017e-012
lfingers 7.12502
lthumb 25.5904 28.3008
rfemur -46.2929 -2.12356 15.0276
rtibia 85.5207
rfoot -30.4028 21.0246
rtoes -10.5793
lfemur -46.6494 5.42717 -20.3169
ltibia 85.554
lfoot -28.4896 1.71482
ltoes -34.2695
4
root 5.36666 16.2967 13.4453 10.1597 -4.65867 1.65631
lowerback 12.2604 0.83929 2.07483
upperback 10.4165 1.23497 0.430422
thorax 4.12578 0.713848 -0.816477
lowerneck -18.1677 -0.82585 1.36492
upperneck -2.62037 -1.31256 -2.21123
head 2.26558 -0.75612 -1.06307
rclavicle 5.1684e-015 7.95139e-016
rhumerus -36.6756 -39.1078 -69.809
rradius 71.7681
rwrist -209.169
rhand -2.44903e-013 6.45653e-013
rfingers 7.12502
rthumb 25.5904 -28.3008
lclavicle 5.1684e-015 7.95139e-016
lhumerus -41.162 6.4526 84.2766
lradius 65.0272
lwrist 19.9472
lhand 3.27597e-013 6.56785e-013
lfingers 7.12502
lthumb 25.5904 28.3008
rfemur -44.8931 -2.23583 15.0834
rtibia 83.4064
rfoot -29.4302 21.2859
rtoes -10.3889
lfemur -45.1535 5.65841 -20.1178
ltibia 83.2926
lfoot -27.5845 0.778723
ltoes -33.9167
5
root 5.35392 16.5135 13.6456 10.5536 -4.50945 1.57367
lowerback 10.9031 0.852609 2.15306
upperback 9.92981 1.23587 0.474356
thorax 4.33508 0.716802 -0.796085
lowerneck -18.0742 -0.906973 1.23359
upperneck -1.59585 -1.37903 -2.11379
head 2.60457 -0.784805 -1.02317
rclavicle 1.35174e-014 2.38542e-015
rhumerus -38.2947 -38.7992 -68.1274
rradius 76.2244
rwrist -209.387
rhand -3.18055e-014 6.77458e-013
rfingers 7.12502
rthumb 25.5904 -28.3008
lclavicle 1.35174e-014 2.38542e-015
lhumerus -42.896 5.90704 83.3009
lradius 69.7623
lwrist 20.1013
lhand 4.34146e-013 9.09639e-013
lfingers 7.12502
lthumb 25.5904 28.3008
rfemur -43.4216 -2.41341 15.1526
rtibia 81.1149
rfoot -28.2888 21.6143
rtoes -9.91056
lfemur -43.6524 5.87207 -19.8915
ltibia 80.9092
lfoot -26.5666 -0.351568
ltoes -33.1827
6
root 5.34149 16.747 13.8654 10.7255 -4.44292 1.54021
lowerback 9.60712 0.890544 2.22012
upperback 9.47022 1.26805 0.463622
thorax 4.55136 0.736673 -0.828663
lowerneck -17.6746 -1.02135 1.15079
upperneck -0.625275 -1.50112 -1.99901
head 2.86939 -0.839067 -0.98594
rclavicle 1.27222e-014 1.11319e-014
rhumerus -40.1563 -38.62 -66.1272
rradius 81.1241
rwrist -209.034
rhand -2.6335e-012 6.04305e-013
rfingers 7.12502
rthumb 25.5904 -28.3008
lclavicle 1.27222e-014 1.11319e-014
lhumerus -44.6042 5.35647 82.0902
lradius 74.4702
lwrist 19.2227
lhand 1.17044e-012 -6.04305e-014
lfingers 7.12502
lthumb 25.5904 28.3008
rfemur -41.5366 -2.56998 15.1358
rtibia 78.5882
rfoot -27.0085 21.927
rtoes -9.59578
lfemur -41.7414 6.20599 -19.716
ltibia 78.3368
lfoot -25.5185 -1.58528
ltoes -32.1053
7
root 5.32627 16.9928 14.0971 10.6277 -4.34394 1.53178
lowerback 8.46121 0.918465 2.24646
upperback 9.08464 1.28532 0.472697
thorax 4.76972 0.746428 -0.818042
lowerneck -16.9366 -1.14038 1.02144
upperneck 0.0053152 -1.6255 -1.87905
head 2.95194 -0.892882 -0.930135
rclavicle -2.26615e-014 3.97569e-015
rhumerus -42.1142 -38.465 -63.9022
rradius 86.3374
rwrist -208.431
rhand 7.4743e-014 -6.99722e-014
rfingers 7.12502
rthumb 25.5904 -28.3008
lclavicle -2.26615e-014 3.97569e-015
lhumerus -46.2035 4.76234 80.8197
lradius 79.3001
lwrist 17.766
lhand -4.42097e-013 -2.76708e-013
lfingers 7.12502
lthumb 25.5904 28.3008
rfemur -39.2158 -2.79996 15.0669
rtibia 75.8758
rfoot -25.5265 22.2731
rtoes -9.08758
lfemur -39.3957 6.57399 -19.5342
ltibia 75.5585
lfoot -24.5013 -2.62119
ltoes -31.5254
8
root 5.31116 17.2395 14.3341 10.5201 -4.18981 1.60214
lowerback 7.19622 0.929578 2.23097
upperback 8.70906 1.276 0.450001
thorax 5.06958 0.742391 -0.813327
lowerneck -16.171 -1.26997 0.92771
upperneck 0.773789 -1.77109 -1.77042
head 3.07628 -0.957957 -0.887093
rclavicle -3.18055e-015 -7.15625e-015
rhumerus -44.2388 -38.5067 -61.2422
rradius 91.3243
rwrist -207.579
rhand 4.10292e-013 -8.87375e-013
rfingers 7.12502
rthumb 25.5904 -28.3008
lclavicle -3.18055e-015 -7.15625e-015
lhumerus -47.6692 4.10034 79.4931
lradius 84.0849
lwrist 16.1173
lhand -8.49208e-013 -1.47578e-012
lfingers 7.12502
lthumb 25.5904 28.3008
rfemur -36.8245 -3.13444 14.8905
rtibia 73.0559
rfoot -23.7633 22.6192
rtoes -8.25435
lfemur -36.9851 6.89012 -19.4335
ltibia 72.6405
lfoot -23.3036 -3.5741
ltoes -30.9474
9
root 5.29325 17.4817 14.5746 10.3674 -3.94942 1.65549
lowerback 5.85607 0.91818 2.23553
upperback 8.3495 1.23511 0.43025
thorax 5.43455 0.724215 -0.814909
lowerneck -15.3259 -1.41138 0.799737
upperneck 1.59275 -1.93124 -1.60647
head 3.20283 -1.02808 -0.819776
rclavicle -6.75868e-015 -7.95139e-016
rhumerus -46.3146 -38.4777 -58.5144
rradius 96.1996
rwrist -206.663
rhand 1.31516e-012 1.87653e-013
rfingers 7.12502
rthumb 25.5904 -28.3008
lclavicle -6.75868e-015 -7.95139e-016
lhumerus -49.0618 3.18147 78.1693
lradius 88.7489
lwrist 14.5917
lhand -4.0393e-013 4.80264e-013
lfingers 7.12502
lthumb 25.5904 28.3008
rfemur -34.3214 -3.55159 14.7285
rtibia 70.1493
rfoot -21.6751 22.9645
rtoes -7.16145
lfemur -34.4877 7.21225 -19.2561
ltibia 69.6312
lfoot -21.8636 -4.71285
ltoes -30.1605
10
root 5.27288 17.7291 14.8196 10.1576 -3.6327 1.74522
lowerback 4.46569 0.881404 2.1697
upperback 7.99599 1.15684 0.440229
thorax 5.83689 0.682564 -0.746835
lowerneck -14.3612 -1.53701 0.597576
upperneck 2.45682 -2.06125 -1.42958
head 3.32287 -1.08372 -0.731123
rclavicle 4.37326e-015 6.36111e-015
rhumerus -48.2018 -38.2768 -55.7335
rradius 100.976
rwrist -205.46
rhand 7.74465e-013 2.71937e-013
rfingers 7.12502
rthumb 25.5904 -28.3008
lclavicle 4.37326e-015 6.36111e-015
lhumerus -50.3064 2.15511 76.9305
lradius 93.0163
lwrist 12.89
lhand 6.36111e-015 4.80264e-013
lfingers 7.12502
lthumb 25.5904 28.3008
rfemur -31.7478 -4.04388 14.5122
rtibia 67.162
rfoot -19.2426 23.2557
rtoes -5.80167
lfemur -31.9144 7.57781 -19.0686
ltibia 66.5107
lfoot -20.0237 -5.8949
ltoes -29.4576
11
root 5.2492 17.985 15.0685 9.83609 -3.19497 1.77916
lowerback 3.16008 0.814179 2.15134
upperback 7.61576 1.04085 0.458976
thorax 6.16827 0.623812 -0.701372
lowerneck -13.182 -1.66616 0.480727
upperneck 3.32547 -2.21234 -1.29801
head 3.40069 -1.1511 -0.6707
rclavicle -1.35174e-014 -6.36111e-015
rhumerus -50.1364 -38.0774 -52.7279
rradius 105.842
rwrist -204.002
rhand 1.45192e-012 8.98507e-013
rfingers 7.12502
rthumb 25.5904 -28.3008
lclavicle -1.35174e-014 -6.36111e-015
lhumerus -51.3884 1.00935 75.6545
lradius 97.0522
lwrist 11.0777
lhand -4.80264e-013 6.74278e-013
lfingers 7.12502
lthumb 25.5904 28.3008
rfemur -29.0734 -4.6066 14.3663
rtibia 64.0777
rfoot -16.262 23.4657
rtoes -3.97735
lfemur -29.2475 8.03066 -18.7207
ltibia 63.3059
lfoot -17.76 -7.30292
ltoes -28.637
12
root 5.2232 18.25 15.3215 9.4956 -2.71055 1.81226
lowerback 1.84979 0.723039 2.10039
upperback 7.20274 0.893138 0.48225
thorax 6.47034 0.546792 -0.638071
lowerneck -11.782 -1.77428 0.336124
upperneck 4.13278 -2.33798 -1.1341
head 3.4138 -1.2052 -0.588324
rclavicle -3.97569e-016 1.59028e-015
rhumerus -52.0266 -37.7783 -49.5225
rradius 110.598
rwrist -202.953
rhand -4.59391e-013 -6.20606e-013
rfingers 7.12502
rthumb 25.5904 -28.3008
lclavicle -3.97569e-016 1.59028e-015
lhumerus -52.3559 -0.222342 74.3266
lradius 101.041
lwrist 9.28493
lhand 3.78486e-013 1.145e-013
lfingers 7.12502
lthumb 25.5904 28.3008
rfemur -26.4272 -5.17954 14.2208
rtibia 60.9132
rfoot -12.8197 23.4418
rtoes -2.02776
lfemur -26.6352 8.4529 -18.3144
ltibia 60.0417
lfoot -14.9569 -8.77523
ltoes -27.2026
13
root 5.19596 18.5225 15.5771 9.21039 -2.20313 1.84463
lowerback 0.493399 0.624712 2.04504
upperback 6.73708 0.737868 0.467145
thorax 6.74737 0.466606 -0.617119
lowerneck -10.1622 -1.86589 0.305235
upperneck 4.84051 -2.46147 -0.986893
head 3.3469 -1.25742 -0.526509
rclavicle 6.16232e-015 1.35174e-014
rhumerus -53.8306 -37.2513 -46.3562
rradius 114.929
rwrist -202.805
rhand -2.27052e-012 -1.62964e-012
rfingers 7.12502
rthumb 25.5904 -28.3008
lclavicle 6.16232e-015 1.35174e-014
lhumerus -53.1866 -1.62409 72.8805
lradius 104.902
lwrist 7.64188
lhand 2.38542e-013 -1.17044e-012
lfingers 7.12502
lthumb 25.5904 28.3008
rfemur -23.8754 -5.79432 14.0689
rtibia 57.7379
rfoot -9.03236 23.1071
rtoes -0.287733
lfemur -24.1969 8.74941 -17.8861
ltibia 56.8324
lfoot -11.5623 -9.97495
ltoes -25.4978
14
root 5.16791 18.8048 15.8328 9.00845 -1.65245 1.88798
lowerback -0.910531 0.501052 1.94287
upperback 6.24706 0.549641 0.469063
thorax 7.02786 0.366854 -0.559113
lowerneck -8.47989 -1.95444 0.207069
upperneck 5.45493 -2.57481 -0.838511
head 3.23645 -1.30683 -0.449332
rclavicle -8.54774e-015 -3.97569e-015
rhumerus -55.4645 -36.7667 -42.8588
rradius 118.528
rwrist -203.932
rhand 7.28347e-013 -8.6193e-013
rfingers 7.12502
rthumb 25.5904 -28.3008
lclavicle -8.54774e-015 -3.97569e-015
lhumerus -53.7543 -3.06669 71.4392
lradius 108.473
lwrist 6.09708
lhand 4.51639e-013 7.87187e-013
lfingers 7.12502
lthumb 25.5904 28.3008
rfemur -21.4901 -6.44167 13.9216
rtibia 54.6056
rfoot -4.86683 22.3633
rtoes 1.02667
lfemur -22.0051 8.90354 -17.4656
ltibia 53.7749
lfoot -7.6345 -10.7035
ltoes -24.3489
